HIERARCHY
ROOT mixamorig:Hips
{
	OFFSET -0.000008 104.274872 1.554316
	CHANNELS 6 Xposition Yposition Zposition Xrotation Yrotation Zrotation
	JOINT mixamorig:Spine
	{
		OFFSET -0.000005 10.181595 0.131519
		CHANNELS 6 Xposition Yposition Zposition Xrotation Yrotation Zrotation
		JOINT mixamorig:Spine1
		{
			OFFSET -0.000000 9.893959 -1.470707
			CHANNELS 6 Xposition Yposition Zposition Xrotation Yrotation Zrotation
			JOINT mixamorig:Spine2
			{
				OFFSET -0.000000 9.220757 -1.370641
				CHANNELS 6 Xposition Yposition Zposition Xrotation Yrotation Zrotation
				JOINT mixamorig:Neck
				{
					OFFSET 0.000001 16.740417 -2.049036
					CHANNELS 6 Xposition Yposition Zposition Xrotation Yrotation Zrotation
					JOINT mixamorig:Head
					{
						OFFSET 0.000000 9.617874 1.685006
						CHANNELS 6 Xposition Yposition Zposition Xrotation Yrotation Zrotation
						JOINT mixamorig:HeadTop_End
						{
							OFFSET 0.000002 22.037354 7.501101
							CHANNELS 6 Xposition Yposition Zposition Xrotation Yrotation Zrotation
							End Site
							{
								OFFSET 0.000168 2310.654297 -282.823242
							}
						}
					}
				}
				JOINT mixamorig:RightShoulder
				{
					OFFSET -4.569970 11.014908 -2.160885
					CHANNELS 6 Xposition Yposition Zposition Xrotation Yrotation Zrotation
					JOINT mixamorig:RightArm
					{
						OFFSET -10.592851 -0.524811 -2.232101
						CHANNELS 6 Xposition Yposition Zposition Xrotation Yrotation Zrotation
						JOINT mixamorig:RightForeArm
						{
							OFFSET -27.841511 0.000031 -0.000004
							CHANNELS 6 Xposition Yposition Zposition Xrotation Yrotation Zrotation
							JOINT mixamorig:RightHand
							{
								OFFSET -28.328831 -0.000015 0.000015
								CHANNELS 6 Xposition Yposition Zposition Xrotation Yrotation Zrotation
								JOINT mixamorig:RightHandThumb1
								{
									OFFSET -2.464806 -1.573990 2.681852
									CHANNELS 6 Xposition Yposition Zposition Xrotation Yrotation Zrotation
									JOINT mixamorig:RightHandThumb2
									{
										OFFSET -3.215179 -1.872803 1.924282
										CHANNELS 6 Xposition Yposition Zposition Xrotation Yrotation Zrotation
										JOINT mixamorig:RightHandThumb3
										{
											OFFSET -2.654831 -1.527969 1.512609
											CHANNELS 6 Xposition Yposition Zposition Xrotation Yrotation Zrotation
											JOINT mixamorig:RightHandThumb4
											{
												OFFSET -2.018814 -1.152008 1.108052
												CHANNELS 6 Xposition Yposition Zposition Xrotation Yrotation Zrotation
												End Site
												{
													OFFSET -188.809540 -114.533607 132.431396
												}
											}
										}
									}
								}
								JOINT mixamorig:RightHandIndex1
								{
									OFFSET -9.108284 -0.517868 2.259835
									CHANNELS 6 Xposition Yposition Zposition Xrotation Yrotation Zrotation
									JOINT mixamorig:RightHandIndex2
									{
										OFFSET -3.699989 0.000000 0.001215
										CHANNELS 6 Xposition Yposition Zposition Xrotation Yrotation Zrotation
										JOINT mixamorig:RightHandIndex3
										{
											OFFSET -2.850006 0.000031 -0.000522
											CHANNELS 6 Xposition Yposition Zposition Xrotation Yrotation Zrotation
											JOINT mixamorig:RightHandIndex4
											{
												OFFSET -2.772186 -0.000015 -0.000020
												CHANNELS 6 Xposition Yposition Zposition Xrotation Yrotation Zrotation
												End Site
												{
													OFFSET -277.218445 0.000000 -0.050231
												}
											}
										}
									}
								}
								JOINT mixamorig:RightHandMiddle1
								{
									OFFSET -9.532516 -0.000031 -0.000023
									CHANNELS 6 Xposition Yposition Zposition Xrotation Yrotation Zrotation
									JOINT mixamorig:RightHandMiddle2
									{
										OFFSET -3.700005 -0.000015 0.003713
										CHANNELS 6 Xposition Yposition Zposition Xrotation Yrotation Zrotation
										JOINT mixamorig:RightHandMiddle3
										{
											OFFSET -2.949974 0.000015 -0.002054
											CHANNELS 6 Xposition Yposition Zposition Xrotation Yrotation Zrotation
											JOINT mixamorig:RightHandMiddle4
											{
												OFFSET -2.946640 0.000000 -0.000156
												CHANNELS 6 Xposition Yposition Zposition Xrotation Yrotation Zrotation
												End Site
												{
													OFFSET -294.664337 0.000000 -0.113670
												}
											}
										}
									}
								}
								JOINT mixamorig:RightHandRing1
								{
									OFFSET -9.103600 -0.043076 -1.865134
									CHANNELS 6 Xposition Yposition Zposition Xrotation Yrotation Zrotation
									JOINT mixamorig:RightHandRing2
									{
										OFFSET -3.379288 0.000000 -0.001055
										CHANNELS 6 Xposition Yposition Zposition Xrotation Yrotation Zrotation
										JOINT mixamorig:RightHandRing3
										{
											OFFSET -2.889687 -0.000015 0.000379
											CHANNELS 6 Xposition Yposition Zposition Xrotation Yrotation Zrotation
											JOINT mixamorig:RightHandRing4
											{
												OFFSET -2.638809 -0.000015 0.000941
												CHANNELS 6 Xposition Yposition Zposition Xrotation Yrotation Zrotation
												End Site
												{
													OFFSET -263.880371 0.000000 0.516020
												}
											}
										}
									}
								}
								JOINT mixamorig:RightHandPinky1
								{
									OFFSET -8.076683 -0.486710 -3.806280
									CHANNELS 6 Xposition Yposition Zposition Xrotation Yrotation Zrotation
									JOINT mixamorig:RightHandPinky2
									{
										OFFSET -3.600014 -0.000015 -0.003747
										CHANNELS 6 Xposition Yposition Zposition Xrotation Yrotation Zrotation
										JOINT mixamorig:RightHandPinky3
										{
											OFFSET -2.099983 0.000000 -0.005739
											CHANNELS 6 Xposition Yposition Zposition Xrotation Yrotation Zrotation
											JOINT mixamorig:RightHandPinky4
											{
												OFFSET -2.115768 -0.000031 -0.003680
												CHANNELS 6 Xposition Yposition Zposition Xrotation Yrotation Zrotation
												End Site
												{
													OFFSET -211.577087 0.000000 -0.350686
												}
											}
										}
									}
								}
							}
						}
					}
				}
				JOINT mixamorig:LeftShoulder
				{
					OFFSET 4.570447 11.014725 -2.160855
					CHANNELS 6 Xposition Yposition Zposition Xrotation Yrotation Zrotation
					JOINT mixamorig:LeftArm
					{
						OFFSET 10.592371 -0.524597 -2.232119
						CHANNELS 6 Xposition Yposition Zposition Xrotation Yrotation Zrotation
						JOINT mixamorig:LeftForeArm
						{
							OFFSET 27.841532 -0.000031 0.000026
							CHANNELS 6 Xposition Yposition Zposition Xrotation Yrotation Zrotation
							JOINT mixamorig:LeftHand
							{
								OFFSET 28.328846 -0.000061 0.000022
								CHANNELS 6 Xposition Yposition Zposition Xrotation Yrotation Zrotation
								JOINT mixamorig:LeftHandThumb1
								{
									OFFSET 2.466141 -1.576172 2.681732
									CHANNELS 6 Xposition Yposition Zposition Xrotation Yrotation Zrotation
									JOINT mixamorig:LeftHandThumb2
									{
										OFFSET 3.217812 -1.872070 1.916482
										CHANNELS 6 Xposition Yposition Zposition Xrotation Yrotation Zrotation
										JOINT mixamorig:LeftHandThumb3
										{
											OFFSET 2.656029 -1.528778 1.514513
											CHANNELS 6 Xposition Yposition Zposition Xrotation Yrotation Zrotation
											JOINT mixamorig:LeftHandThumb4
											{
												OFFSET 2.020889 -1.154053 1.115139
												CHANNELS 6 Xposition Yposition Zposition Xrotation Yrotation Zrotation
												End Site
												{
													OFFSET 190.885437 -115.081749 130.048782
												}
											}
										}
									}
								}
								JOINT mixamorig:LeftHandIndex1
								{
									OFFSET 9.109314 -0.518021 2.259871
									CHANNELS 6 Xposition Yposition Zposition Xrotation Yrotation Zrotation
									JOINT mixamorig:LeftHandIndex2
									{
										OFFSET 3.699989 0.000000 -0.000322
										CHANNELS 6 Xposition Yposition Zposition Xrotation Yrotation Zrotation
										JOINT mixamorig:LeftHandIndex3
										{
											OFFSET 2.850006 0.000000 0.000352
											CHANNELS 6 Xposition Yposition Zposition Xrotation Yrotation Zrotation
											JOINT mixamorig:LeftHandIndex4
											{
												OFFSET 2.774864 -0.000031 -0.000027
												CHANNELS 6 Xposition Yposition Zposition Xrotation Yrotation Zrotation
												End Site
												{
													OFFSET 277.486267 0.000000 -0.009857
												}
											}
										}
									}
								}
								JOINT mixamorig:LeftHandMiddle1
								{
									OFFSET 9.533394 0.000061 0.000044
									CHANNELS 6 Xposition Yposition Zposition Xrotation Yrotation Zrotation
									JOINT mixamorig:LeftHandMiddle2
									{
										OFFSET 3.699989 -0.000015 -0.000231
										CHANNELS 6 Xposition Yposition Zposition Xrotation Yrotation Zrotation
										JOINT mixamorig:LeftHandMiddle3
										{
											OFFSET 2.949997 -0.000015 -0.000059
											CHANNELS 6 Xposition Yposition Zposition Xrotation Yrotation Zrotation
											JOINT mixamorig:LeftHandMiddle4
											{
												OFFSET 2.952896 0.000031 0.000063
												CHANNELS 6 Xposition Yposition Zposition Xrotation Yrotation Zrotation
												End Site
												{
													OFFSET 295.289337 0.000000 0.022810
												}
											}
										}
									}
								}
								JOINT mixamorig:LeftHandRing1
								{
									OFFSET 9.104523 -0.042999 -1.865074
									CHANNELS 6 Xposition Yposition Zposition Xrotation Yrotation Zrotation
									JOINT mixamorig:LeftHandRing2
									{
										OFFSET 3.150009 -0.000031 0.000043
										CHANNELS 6 Xposition Yposition Zposition Xrotation Yrotation Zrotation
										JOINT mixamorig:LeftHandRing3
										{
											OFFSET 2.949982 -0.000015 0.000040
											CHANNELS 6 Xposition Yposition Zposition Xrotation Yrotation Zrotation
											JOINT mixamorig:LeftHandRing4
											{
												OFFSET 2.644348 0.000000 0.000057
												CHANNELS 6 Xposition Yposition Zposition Xrotation Yrotation Zrotation
												End Site
												{
													OFFSET 264.434631 0.000000 0.012105
												}
											}
										}
									}
								}
								JOINT mixamorig:LeftHandPinky1
								{
									OFFSET 8.077789 -0.486847 -3.806259
									CHANNELS 6 Xposition Yposition Zposition Xrotation Yrotation Zrotation
									JOINT mixamorig:LeftHandPinky2
									{
										OFFSET 3.599953 0.000031 0.014727
										CHANNELS 6 Xposition Yposition Zposition Xrotation Yrotation Zrotation
										JOINT mixamorig:LeftHandPinky3
										{
											OFFSET 2.100021 0.000015 0.007705
											CHANNELS 6 Xposition Yposition Zposition Xrotation Yrotation Zrotation
											JOINT mixamorig:LeftHandPinky4
											{
												OFFSET 2.125504 0.000031 0.007517
												CHANNELS 6 Xposition Yposition Zposition Xrotation Yrotation Zrotation
												End Site
												{
													OFFSET 212.550781 0.000000 0.625752
												}
											}
										}
									}
								}
							}
						}
					}
				}
			}
		}
	}
	JOINT mixamorig:RightUpLeg
	{
		OFFSET -8.207787 -6.751648 -1.599560
		CHANNELS 6 Xposition Yposition Zposition Xrotation Yrotation Zrotation
		JOINT mixamorig:RightLeg
		{
			OFFSET -0.000002 -44.370117 0.345942
			CHANNELS 6 Xposition Yposition Zposition Xrotation Yrotation Zrotation
			JOINT mixamorig:RightFoot
			{
				OFFSET 0.000003 -44.423679 -3.043532
				CHANNELS 6 Xposition Yposition Zposition Xrotation Yrotation Zrotation
				JOINT mixamorig:RightToeBase
				{
					OFFSET -0.000002 -8.728671 10.710558
					CHANNELS 6 Xposition Yposition Zposition Xrotation Yrotation Zrotation
					JOINT mixamorig:RightToe_End
					{
						OFFSET -0.000001 -0.000679 9.278119
						CHANNELS 6 Xposition Yposition Zposition Xrotation Yrotation Zrotation
						End Site
						{
							OFFSET 0.000000 -0.067690 927.812134
						}
					}
				}
			}
		}
	}
	JOINT mixamorig:LeftUpLeg
	{
		OFFSET 8.207793 -6.751686 -1.599556
		CHANNELS 6 Xposition Yposition Zposition Xrotation Yrotation Zrotation
		JOINT mixamorig:LeftLeg
		{
			OFFSET -0.000004 -44.370014 0.346954
			CHANNELS 6 Xposition Yposition Zposition Xrotation Yrotation Zrotation
			JOINT mixamorig:LeftFoot
			{
				OFFSET -0.000001 -44.423672 -3.044401
				CHANNELS 6 Xposition Yposition Zposition Xrotation Yrotation Zrotation
				JOINT mixamorig:LeftToeBase
				{
					OFFSET -0.000002 -8.728669 10.710558
					CHANNELS 6 Xposition Yposition Zposition Xrotation Yrotation Zrotation
					JOINT mixamorig:LeftToe_End
					{
						OFFSET -0.000003 -0.000679 9.278133
						CHANNELS 6 Xposition Yposition Zposition Xrotation Yrotation Zrotation
						End Site
						{
							OFFSET 0.000000 -0.068021 927.813477
						}
					}
				}
			}
		}
	}
}
MOTION
Frames: 3
Frame Time: 0.033333
0.000006 104.270477 1.554256 0.000010 0.000003 -0.000113 -0.000005 10.181587 0.131522 0.000001 -0.000003 0.000084 -0.000000 9.893967 -1.470711 0.000001 0.000000 -0.000000 -0.000000 9.220802 -1.370642 0.000000 -0.000000 -0.000000 0.000001 16.740433 -2.049030 0.000000 -0.000000 -0.000000 0.000000 9.617859 1.685014 0.000000 0.000000 0.000000 0.000002 22.037384 7.501101 0.000000 -0.000000 0.000000 -4.569968 11.014880 -2.160881 0.000008 0.000001 -0.000038 -10.592783 -0.524848 -2.231750 76.301225 64.459794 -52.693465 -27.841501 -0.000005 0.000580 44.247919 102.071686 -53.375883 -28.328835 0.000020 0.000023 -0.000321 -0.000045 0.000006 -2.464868 -1.573715 2.682298 -4.910291 -241.854294 256.646598 -3.214949 -1.872954 1.924800 194.974621 -21.436465 276.149357 -2.654625 -1.528222 1.513071 217.265927 -27.762076 -69.780730 -2.018816 -1.151985 1.108058 -0.000001 -0.000003 0.000007 -9.108239 -0.517782 2.260429 216.834218 29.319424 -283.689722 -3.700098 -0.000106 0.001561 291.770710 32.321408 22.209622 -2.850099 -0.000048 -0.000360 154.658979 156.704839 185.306775 -2.772165 -0.000019 -0.000011 -0.000001 0.000003 0.000001 -9.532478 0.000016 0.000558 219.731284 27.212556 -292.324419 -3.700088 -0.000157 0.003978 303.557594 22.905231 12.390212 -2.950052 -0.000054 -0.002003 347.548466 11.217451 1.227544 -2.946624 0.000004 -0.000170 0.000001 0.000003 0.000003 -9.103555 -0.042985 -1.864543 218.791532 27.624268 -290.158239 -3.379332 -0.000183 -0.000846 304.727032 8.321467 4.369100 -2.889673 -0.000032 0.000363 349.821799 -8.123295 -0.718083 -2.638793 0.000001 0.000945 0.000003 -0.000000 -0.000000 -8.076687 -0.486653 -3.805730 225.205202 22.893527 -308.219062 -3.600026 -0.000208 -0.003539 304.231543 4.812266 2.398596 -2.099912 0.000030 -0.005778 362.105976 -14.389559 360.244367 -2.115774 -0.000070 -0.003679 0.000001 0.000002 -0.000007 4.570446 11.014691 -2.160851 -0.000018 0.000010 -0.000021 10.592530 -0.524525 -2.232398 73.848367 -64.461761 50.703223 27.841772 -0.000037 -0.000135 44.466973 -100.242144 52.140848 28.328825 -0.000014 0.000027 0.000020 -0.000087 -0.000000 2.466185 -1.576111 2.681893 -42.778861 -15.085818 12.456668 3.217849 -1.871948 1.916565 110.261547 165.514840 -158.608590 2.656002 -1.528813 1.514621 241.590949 404.667945 -299.064368 2.020888 -1.154073 1.115142 0.000000 0.000003 0.000001 9.109262 -0.517776 2.260108 248.079929 -14.838077 338.188784 3.700014 -0.000016 -0.000362 -343.448795 -11.927131 -358.255525 2.850006 0.000131 0.000180 61.732308 5.903140 356.469212 2.774886 -0.000033 -0.000032 -0.000001 0.000001 -0.000003 9.533367 0.000278 0.000296 434.235724 -169.627734 526.329569 3.699997 -0.000009 -0.000293 -162.354075 -188.171397 178.729371 2.949985 0.000134 -0.000220 -295.083570 11.059273 -7.046015 2.952863 -0.000015 0.000080 0.000005 -0.000000 0.000001 9.104530 -0.042827 -1.864838 442.202812 -176.752059 536.275581 3.149966 0.000044 -0.000074 -342.277636 27.520258 -4.372929 2.949904 0.000178 -0.000177 -290.994691 18.727446 -12.932340 2.644318 0.000028 0.000047 -0.000003 0.000003 -0.000000 8.077796 -0.486701 -3.806006 91.150247 -181.114173 180.623902 3.599929 0.000022 0.014620 18.659047 24.181332 -4.057328 2.099944 0.000199 0.007484 -284.213351 17.661264 -13.584179 2.125491 -0.000009 0.007511 0.000001 0.000001 -0.000001 -8.207786 -6.751667 -1.599560 -0.077001 -0.000003 0.000080 -0.000002 -44.370110 0.345938 0.153719 -0.000000 -0.000000 0.000000 -44.423679 -3.043532 -0.076700 0.000000 -0.000002 -0.000006 -8.728667 10.710559 -0.000009 -0.000000 -0.000000 -0.000001 -0.000679 9.278123 0.000000 -0.000000 -0.000000 8.207792 -6.751710 -1.599556 -0.074518 -0.000003 0.000081 -0.000002 -44.370014 0.346960 0.148822 0.000002 0.000000 -0.000001 -44.423664 -3.044403 -0.074314 0.000000 -0.000002 -0.000004 -8.728671 10.710558 0.000007 -0.000000 -0.000000 0.000000 -0.000680 9.278137 -0.000000 0.000000 -0.000001 
0.000006 104.270477 1.554256 0.000010 0.000003 -0.000113 -0.000005 10.181587 0.131522 0.000001 -0.000003 0.000084 -0.000000 9.893967 -1.470711 0.000001 0.000000 -0.000000 -0.000000 9.220802 -1.370642 0.000000 -0.000000 -0.000000 0.000001 16.740433 -2.049030 0.000000 -0.000000 -0.000000 0.000000 9.617859 1.685014 0.000000 0.000000 0.000000 0.000002 22.037384 7.501101 0.000000 -0.000000 0.000000 -4.569968 11.014880 -2.160881 0.000008 0.000001 -0.000038 -10.592784 -0.524847 -2.231752 76.997993 64.623049 -53.410266 -27.841501 0.000003 0.000570 47.668515 102.133724 -57.343242 -28.328829 -0.000010 0.000017 -0.000323 -0.000045 0.000007 -2.464935 -1.574060 2.682141 106.668075 -211.717300 167.474217 -3.215138 -1.873013 1.924580 254.555140 -4.417385 328.524695 -2.654585 -1.528198 1.513079 210.180767 -33.955848 -81.039443 -2.018831 -1.152027 1.108055 0.000001 -0.000001 0.000004 -9.108267 -0.517826 2.260418 223.238600 23.740640 -304.094994 -3.700063 -0.000128 0.001632 268.133720 22.031916 22.732534 -2.850073 -0.000136 -0.000288 126.101452 165.355574 187.475319 -2.772164 -0.000029 -0.000021 -0.000000 0.000002 -0.000003 -9.532532 -0.000068 0.000506 236.840580 17.793189 -327.616198 -3.700019 -0.000190 0.003951 289.980572 2.513288 1.707346 -2.949977 -0.000117 -0.001977 329.387457 -2.618861 -0.718654 -2.946623 0.000002 -0.000166 0.000002 0.000000 -0.000001 -9.103638 -0.043115 -1.864645 246.054423 17.457262 -333.456775 -3.379262 -0.000231 -0.000849 300.463027 -1.753071 -0.993867 -2.889671 -0.000100 0.000393 338.857788 -8.352817 -1.550824 -2.638803 0.000001 0.000945 0.000002 -0.000000 0.000001 -8.076721 -0.486794 -3.805845 254.844139 19.773553 -334.428574 -3.600016 -0.000249 -0.003520 297.057932 5.383103 3.125329 -2.099949 -0.000103 -0.005713 335.284697 -6.340615 358.554004 -2.115773 -0.000011 -0.003682 0.000004 -0.000003 -0.000001 4.570446 11.014691 -2.160851 -0.000018 0.000010 -0.000021 10.592535 -0.524527 -2.232401 73.284323 -64.938351 50.656098 27.841766 -0.000043 -0.000132 49.899829 -99.035728 57.187453 28.328829 -0.000015 0.000011 0.000017 -0.000089 0.000001 2.466169 -1.576098 2.681903 -42.030959 -26.341239 13.082669 3.217838 -1.871901 1.916601 111.174422 180.441167 -161.611824 2.656068 -1.528739 1.514610 229.316143 392.515126 -296.834830 2.020895 -1.154079 1.115139 0.000003 0.000005 0.000001 9.109222 -0.517769 2.260116 243.921273 -17.772955 331.872089 3.700012 -0.000021 -0.000370 -343.446008 -12.505043 -358.170148 2.849993 0.000103 0.000186 52.099433 6.926923 356.610488 2.774889 -0.000047 -0.000002 0.000002 -0.000002 -0.000001 9.533340 0.000259 0.000285 434.294655 -166.252282 521.924261 3.699989 0.000000 -0.000320 -158.179928 -191.080976 177.857498 2.949970 0.000141 -0.000234 -294.326894 12.508586 -8.090094 2.952861 -0.000041 0.000080 0.000002 0.000000 0.000002 9.104505 -0.042818 -1.864817 439.630973 -172.487384 530.992075 3.149955 0.000036 -0.000091 -335.728687 30.778434 -6.774478 2.949891 0.000191 -0.000187 -288.383673 21.924385 -15.909397 2.644327 0.000031 0.000053 0.000002 0.000001 -0.000001 8.077776 -0.486689 -3.806013 86.281122 -177.568021 176.926748 3.599909 0.000039 0.014609 21.644659 24.782040 -4.828799 2.099940 0.000185 0.007499 -286.351747 17.705928 -13.108254 2.125509 -0.000014 0.007518 -0.000003 0.000000 0.000001 -8.207786 -6.751667 -1.599560 -0.077001 -0.000003 0.000080 -0.000002 -44.370110 0.345938 0.153719 -0.000000 -0.000000 0.000000 -44.423679 -3.043532 -0.076700 0.000000 -0.000002 -0.000006 -8.728667 10.710559 -0.000009 -0.000000 -0.000000 -0.000001 -0.000679 9.278123 0.000000 -0.000000 -0.000000 8.207792 -6.751710 -1.599556 -0.074518 -0.000003 0.000081 -0.000002 -44.370014 0.346960 0.148822 0.000002 0.000000 -0.000001 -44.423664 -3.044403 -0.074314 0.000000 -0.000002 -0.000004 -8.728671 10.710558 0.000007 -0.000000 -0.000000 0.000000 -0.000680 9.278137 -0.000000 0.000000 -0.000001 
0.000006 104.270477 1.554256 0.000010 0.000003 -0.000113 -0.000005 10.181587 0.131522 0.000001 -0.000003 0.000084 -0.000000 9.893967 -1.470711 0.000001 0.000000 -0.000000 -0.000000 9.220802 -1.370642 0.000000 -0.000000 -0.000000 0.000001 16.740433 -2.049030 0.000000 -0.000000 -0.000000 0.000000 9.617859 1.685014 0.000000 0.000000 0.000000 0.000002 22.037384 7.501101 0.000000 -0.000000 0.000000 -4.569968 11.014880 -2.160881 0.000008 0.000001 -0.000038 -10.592776 -0.524842 -2.231748 77.718960 65.125341 -54.455958 -27.841494 0.000010 0.000573 49.966898 102.063189 -59.888765 -28.328821 0.000020 0.000017 -0.000323 -0.000045 0.000007 -2.464919 -1.574039 2.682106 114.549198 -211.830176 167.236198 -3.215152 -1.872998 1.924597 259.913833 -4.790268 330.329286 -2.654547 -1.528205 1.513077 202.064508 -37.764048 -92.290759 -2.018846 -1.152002 1.108051 -0.000003 -0.000002 0.000004 -9.108265 -0.517778 2.260419 217.241489 16.854113 -312.484952 -3.700008 -0.000161 0.001571 267.102771 0.604628 0.616004 -2.849965 -0.000129 -0.000417 140.386110 190.129039 176.343286 -2.772160 -0.000001 -0.000016 0.000003 -0.000004 -0.000001 -9.532514 -0.000044 0.000514 230.280429 15.405944 -327.701931 -3.699972 -0.000228 0.003964 286.837619 -8.555000 -6.422400 -2.949908 -0.000120 -0.002036 338.627638 -14.909695 -2.830838 -2.946630 -0.000004 -0.000159 -0.000000 -0.000004 -0.000001 -9.103619 -0.043099 -1.864608 237.347571 14.323548 -334.163508 -3.379233 -0.000222 -0.000842 295.100208 -8.311896 -5.279560 -2.889645 -0.000095 0.000385 335.940969 -14.148871 -3.015892 -2.638806 -0.000014 0.000953 0.000003 -0.000003 0.000002 -8.076693 -0.486744 -3.805784 241.933169 18.872863 -329.150204 -3.600018 -0.000261 -0.003439 287.332507 5.965999 4.184966 -2.099976 -0.000180 -0.005643 318.984505 -1.896438 359.211615 -2.115775 -0.000055 -0.003678 0.000000 -0.000000 -0.000003 4.570446 11.014691 -2.160851 -0.000018 0.000010 -0.000021 10.592532 -0.524534 -2.232400 71.116339 -64.781817 48.787116 27.841770 -0.000065 -0.000131 46.567355 -98.895101 53.397487 28.328831 -0.000030 0.000033 0.000020 -0.000089 0.000000 2.466167 -1.576077 2.681914 -56.191246 -17.323124 14.015300 3.217847 -1.871934 1.916535 95.612745 162.751824 -151.974127 2.655975 -1.528814 1.514611 204.446645 406.663753 -263.902500 2.020887 -1.154084 1.115153 0.000000 0.000003 0.000004 9.109164 -0.517691 2.260057 213.436213 -13.993364 315.565832 3.699994 0.000240 -0.000102 -472.789355 -2.741120 -364.143968 2.850044 0.000116 0.000556 -81.760882 10.699617 369.269779 2.774863 -0.000028 -0.000030 -0.000002 0.000003 0.000003 9.533321 0.000375 0.000250 405.833421 -167.873277 511.802795 3.700022 0.000128 -0.000002 -269.960768 -183.804844 183.804625 2.950014 0.000005 0.000059 -402.561651 12.608954 4.926784 2.952867 -0.000030 0.000067 0.000001 -0.000000 -0.000001 9.104450 -0.042718 -1.864841 410.685997 -171.295421 521.739081 3.150023 0.000114 0.000246 -441.457857 8.541171 7.356091 2.949993 0.000012 0.000148 -402.246041 14.729098 5.716296 2.644319 0.000030 0.000061 0.000001 -0.000002 -0.000000 8.077719 -0.486556 -3.806023 55.676260 -171.160333 162.647964 3.599952 0.000160 0.014975 -81.691528 2.423886 1.716608 2.100012 0.000047 0.007877 -413.930528 10.455537 5.080202 2.125503 -0.000014 0.007509 0.000001 0.000002 -0.000000 -8.207786 -6.751667 -1.599560 -0.077001 -0.000003 0.000080 -0.000002 -44.370110 0.345938 0.153719 -0.000000 -0.000000 0.000000 -44.423679 -3.043532 -0.076700 0.000000 -0.000002 -0.000006 -8.728667 10.710559 -0.000009 -0.000000 -0.000000 -0.000001 -0.000679 9.278123 0.000000 -0.000000 -0.000000 8.207792 -6.751710 -1.599556 -0.074518 -0.000003 0.000081 -0.000002 -44.370014 0.346960 0.148822 0.000002 0.000000 -0.000001 -44.423664 -3.044403 -0.074314 0.000000 -0.000002 -0.000004 -8.728671 10.710558 0.000007 -0.000000 -0.000000 0.000000 -0.000680 9.278137 -0.000000 0.000000 -0.000001 
